<?xml version="1.0" encoding="UTF-8" standalone="no"?>
<!-- Created with Inkscape (http://www.inkscape.org/) -->

<svg
   xmlns:dc="http://purl.org/dc/elements/1.1/"
   xmlns:cc="http://creativecommons.org/ns#"
   xmlns:rdf="http://www.w3.org/1999/02/22-rdf-syntax-ns#"
   xmlns:svg="http://www.w3.org/2000/svg"
   xmlns="http://www.w3.org/2000/svg"
   xmlns:sodipodi="http://sodipodi.sourceforge.net/DTD/sodipodi-0.dtd"
   xmlns:inkscape="http://www.inkscape.org/namespaces/inkscape"
   width="744.09448819"
   height="1052.3622047"
   id="svg3474"
   version="1.1"
   inkscape:version="0.48.3.1 r9886"
   sodipodi:docname="comics-immortal-kombat.svg"
   inkscape:export-filename="/home/reddy/comics-immortal-kombat.png"
   inkscape:export-xdpi="90"
   inkscape:export-ydpi="90">
  <defs
     id="defs3476" />
  <sodipodi:namedview
     id="base"
     pagecolor="#ffffff"
     bordercolor="#666666"
     borderopacity="1.0"
     inkscape:pageopacity="0.0"
     inkscape:pageshadow="2"
     inkscape:zoom="0.98994949"
     inkscape:cx="418.49117"
     inkscape:cy="786.09389"
     inkscape:document-units="px"
     inkscape:current-layer="layer1"
     showgrid="false"
     inkscape:window-width="959"
     inkscape:window-height="744"
     inkscape:window-x="65"
     inkscape:window-y="24"
     inkscape:window-maximized="1" />
  <metadata
     id="metadata3479">
    <rdf:RDF>
      <cc:Work
         rdf:about="">
        <dc:format>image/svg+xml</dc:format>
        <dc:type
           rdf:resource="http://purl.org/dc/dcmitype/StillImage" />
        <dc:title></dc:title>
      </cc:Work>
    </rdf:RDF>
  </metadata>
  <g
     inkscape:label="Layer 1"
     inkscape:groupmode="layer"
     id="layer1">
    <g
       id="g3557"
       transform="translate(-87.883271,-19.192898)">
      <path
         inkscape:connector-curvature="0"
         id="path3765"
         d="m 142.63145,227.50408 c 0,0 18.38084,-4.34866 23.21299,-0.77441 4.33838,3.20903 3.33184,16.39012 3.33184,16.39012"
         style="fill:none;stroke:#000000;stroke-width:1px;stroke-linecap:butt;stroke-linejoin:miter;stroke-opacity:1"
         sodipodi:nodetypes="csc" />
      <path
         sodipodi:nodetypes="csc"
         inkscape:connector-curvature="0"
         id="path3761"
         d="m 143.33855,178.36016 c 0,0 6.59823,13.89637 13.70244,14.07009 7.95867,0.1946 19.32182,-12.61944 19.32182,-12.61944"
         style="fill:none;stroke:#000000;stroke-width:1px;stroke-linecap:butt;stroke-linejoin:miter;stroke-opacity:1" />
      <path
         transform="translate(68.031683,80.238581)"
         d="m 92,68.862183 c 0,9.112698 -7.387302,16.5 -16.5,16.5 -9.112698,0 -16.5,-7.387302 -16.5,-16.5 0,-9.112699 7.387302,-16.5 16.5,-16.5 9.112698,0 16.5,7.387301 16.5,16.5 z"
         sodipodi:ry="16.5"
         sodipodi:rx="16.5"
         sodipodi:cy="68.862183"
         sodipodi:cx="75.5"
         id="path2985"
         style="fill:#ffe680;stroke:#000000;stroke-opacity:1"
         sodipodi:type="arc" />
      <path
         transform="translate(63.789042,79.177921)"
         d="m 96.873631,118.98123 c 0,18.15938 -7.756271,32.88047 -17.324116,32.88047 -9.567845,0 -17.324116,-14.72109 -17.324116,-32.88047 0,-18.15938 7.756271,-32.880465 17.324116,-32.880465 9.567845,0 17.324116,14.721085 17.324116,32.880465 z"
         sodipodi:ry="32.880466"
         sodipodi:rx="17.324116"
         sodipodi:cy="118.98123"
         sodipodi:cx="79.549515"
         id="path3755"
         style="fill:#4d4d4d;stroke:#000000;stroke-width:1;stroke-miterlimit:4;stroke-opacity:1;stroke-dasharray:none"
         sodipodi:type="arc" />
      <path
         transform="translate(66.031683,76.238581)"
         d="m 93.691649,67.008881 c 0,3.319456 -0.633165,6.010407 -1.414214,6.010407 -0.781048,0 -1.414213,-2.690951 -1.414213,-6.010407 0,-3.319457 0.633165,-6.010408 1.414213,-6.010408 0.781049,0 1.414214,2.690951 1.414214,6.010408 z"
         sodipodi:ry="6.0104074"
         sodipodi:rx="1.4142135"
         sodipodi:cy="67.008881"
         sodipodi:cx="92.277435"
         id="path3757"
         style="fill:#afe9dd;stroke:#000000;stroke-width:1;stroke-miterlimit:4;stroke-opacity:1;stroke-dasharray:none"
         sodipodi:type="arc" />
      <path
         inkscape:connector-curvature="0"
         id="path3759"
         d="m 156.42003,143.00482 -12.72792,0"
         style="fill:none;stroke:#000000;stroke-width:1px;stroke-linecap:butt;stroke-linejoin:miter;stroke-opacity:1" />
      <path
         inkscape:connector-curvature="0"
         id="path3763"
         d="m 141.21724,179.42082 c 0,0 18.28011,4.20555 24.338,1.87597 7.93713,-3.05226 8.12557,-19.25111 8.12557,-19.25111"
         style="fill:none;stroke:#000000;stroke-width:1px;stroke-linecap:butt;stroke-linejoin:miter;stroke-opacity:1"
         sodipodi:nodetypes="csc" />
      <path
         inkscape:connector-curvature="0"
         id="path3767"
         d="m 140.15657,227.50408 c 0,0 6.4616,15.07856 6.13949,19.33839 -0.37508,4.96052 -6.20859,18.51336 -6.20859,18.51336"
         style="fill:none;stroke:#000000;stroke-width:1px;stroke-linecap:butt;stroke-linejoin:miter;stroke-opacity:1"
         sodipodi:nodetypes="csc" />
      <path
         inkscape:connector-curvature="0"
         id="path3547"
         d="m 131.60714,137.36218 c 0,0 3.39286,1.60714 5.89286,1.96429 2.5,0.35714 5.35714,-0.71429 6.60714,0.53571 1.25,1.25 2.14286,5.35714 2.14286,5.35714 0,0 -1.42857,-2.14285 -2.85714,-1.96428 -1.42857,0.17857 -2.67857,1.07143 -1.96429,3.39285 0.71429,2.32143 -0.71428,5.53572 -0.71428,5.53572 0,0 -5.89286,-0.17857 -8.21429,-0.53571 -2.32143,-0.35715 -5.71429,-1.42858 -5.71429,-1.42858 0,0 0.17858,-4.46428 1.42858,-7.5 1.25,-3.03571 3.39285,-5.35714 3.39285,-5.35714 z"
         style="fill:#999999;stroke:#000000;stroke-width:1px;stroke-linecap:butt;stroke-linejoin:miter;stroke-opacity:1" />
    </g>
    <g
       id="g3668"
       transform="translate(-87.883271,-19.192898)">
      <path
         inkscape:connector-curvature="0"
         id="path3765-2"
         d="m 238.79024,227.50408 c 0,0 -7.78274,13.16999 -7.55562,19.1761 0.2073,5.48187 3.73922,18.15789 3.73922,18.15789"
         style="fill:none;stroke:#000000;stroke-width:1px;stroke-linecap:butt;stroke-linejoin:miter;stroke-opacity:1"
         sodipodi:nodetypes="csc" />
      <path
         sodipodi:nodetypes="csc"
         inkscape:connector-curvature="0"
         id="path3761-0"
         d="m 238.08314,178.36016 c 0,0 -6.18495,6.48715 -15.47021,9.77694 -6.61261,2.34286 -19.57436,-8.07376 -19.57436,-8.07376"
         style="fill:none;stroke:#000000;stroke-width:1px;stroke-linecap:butt;stroke-linejoin:miter;stroke-opacity:1" />
      <path
         transform="matrix(-1,0,0,1,313.39001,80.23858)"
         d="m 92,68.862183 c 0,9.112698 -7.387302,16.5 -16.5,16.5 -9.112698,0 -16.5,-7.387302 -16.5,-16.5 0,-9.112699 7.387302,-16.5 16.5,-16.5 9.112698,0 16.5,7.387301 16.5,16.5 z"
         sodipodi:ry="16.5"
         sodipodi:rx="16.5"
         sodipodi:cy="68.862183"
         sodipodi:cx="75.5"
         id="path2985-8"
         style="fill:#ffe680;stroke:#000000;stroke-opacity:1"
         sodipodi:type="arc" />
      <path
         transform="matrix(-1,0,0,1,317.63265,79.17792)"
         d="m 96.873631,118.98123 c 0,18.15938 -7.756271,32.88047 -17.324116,32.88047 -9.567845,0 -17.324116,-14.72109 -17.324116,-32.88047 0,-18.15938 7.756271,-32.880465 17.324116,-32.880465 9.567845,0 17.324116,14.721085 17.324116,32.880465 z"
         sodipodi:ry="32.880466"
         sodipodi:rx="17.324116"
         sodipodi:cy="118.98123"
         sodipodi:cx="79.549515"
         id="path3755-4"
         style="fill:#5599ff;stroke:#000000;stroke-width:1;stroke-miterlimit:4;stroke-opacity:1;stroke-dasharray:none"
         sodipodi:type="arc" />
      <path
         transform="matrix(-1,0,0,1,315.39001,76.23858)"
         d="m 93.691649,67.008881 c 0,3.319456 -0.633165,6.010407 -1.414214,6.010407 -0.781048,0 -1.414213,-2.690951 -1.414213,-6.010407 0,-3.319457 0.633165,-6.010408 1.414213,-6.010408 0.781049,0 1.414214,2.690951 1.414214,6.010408 z"
         sodipodi:ry="6.0104074"
         sodipodi:rx="1.4142135"
         sodipodi:cy="67.008881"
         sodipodi:cx="92.277435"
         id="path3757-3"
         style="fill:#afe9dd;stroke:#000000;stroke-width:1;stroke-miterlimit:4;stroke-opacity:1;stroke-dasharray:none"
         sodipodi:type="arc" />
      <path
         inkscape:connector-curvature="0"
         id="path3759-7"
         d="m 225.00166,143.00482 12.72792,0"
         style="fill:none;stroke:#000000;stroke-width:1px;stroke-linecap:butt;stroke-linejoin:miter;stroke-opacity:1" />
      <path
         inkscape:connector-curvature="0"
         id="path3763-8"
         d="m 240.20445,179.42082 c 0,0 -1.68779,14.23449 -7.92302,15.26049 -6.11064,1.0055 -13.42887,-20.5138 -13.42887,-20.5138"
         style="fill:none;stroke:#000000;stroke-width:1px;stroke-linecap:butt;stroke-linejoin:miter;stroke-opacity:1"
         sodipodi:nodetypes="csc" />
      <path
         inkscape:connector-curvature="0"
         id="path3767-5"
         d="m 241.26512,227.50408 c 0,0 1.36708,15.58364 1.68919,19.84347 0.37508,4.96052 7.97636,16.99813 7.97636,16.99813"
         style="fill:none;stroke:#000000;stroke-width:1px;stroke-linecap:butt;stroke-linejoin:miter;stroke-opacity:1"
         sodipodi:nodetypes="csc" />
      <path
         inkscape:connector-curvature="0"
         id="path3647"
         d="m 238.14346,145.49773 c 0,0 0.25254,-3.53553 -0.75761,-4.29314 -1.01015,-0.75762 -2.14658,-2.52539 -6.06092,-3.66181 -3.91434,-1.13642 -5.42957,-1.01015 -5.42957,-1.01015 0,0 4.29315,-5.17703 10.98541,-4.92449 6.69226,0.25253 12.2481,2.39911 16.03617,8.33375 3.78808,5.93465 2.27285,12.2481 2.27285,12.2481 l -10.73287,-1.01015 c 0,0 -1.13643,-7.82868 -2.65165,-8.08122 -1.51523,-0.25254 -3.66181,2.39911 -3.66181,2.39911 z"
         style="fill:#aa4400;stroke:#000000;stroke-width:1px;stroke-linecap:butt;stroke-linejoin:miter;stroke-opacity:1" />
    </g>
    <g
       id="g3733"
       transform="translate(-86.873119,-19.192898)">
      <path
         inkscape:connector-curvature="0"
         id="path3765-2-9"
         d="m 413.68671,227.50408 c 0,0 2.73198,14.68522 2.50486,20.69133 -0.2073,5.48187 0.0489,16.13758 0.0489,16.13758"
         style="fill:none;stroke:#000000;stroke-width:1px;stroke-linecap:butt;stroke-linejoin:miter;stroke-opacity:1"
         sodipodi:nodetypes="csc" />
      <path
         sodipodi:nodetypes="csc"
         inkscape:connector-curvature="0"
         id="path3761-0-1"
         d="m 414.39381,178.36016 c 0,0 -0.0549,8.01439 0.31792,17.85816 0.29916,7.8987 5.17969,13.39198 5.17969,13.39198"
         style="fill:none;stroke:#000000;stroke-width:1px;stroke-linecap:butt;stroke-linejoin:miter;stroke-opacity:1" />
      <path
         transform="matrix(0.93969262,0.34202014,-0.34202014,0.93969262,366.98798,58.72671)"
         d="m 92,68.862183 c 0,9.112698 -7.387302,16.5 -16.5,16.5 -9.112698,0 -16.5,-7.387302 -16.5,-16.5 0,-9.112699 7.387302,-16.5 16.5,-16.5 9.112698,0 16.5,7.387301 16.5,16.5 z"
         sodipodi:ry="16.5"
         sodipodi:rx="16.5"
         sodipodi:cy="68.862183"
         sodipodi:cx="75.5"
         id="path2985-8-5"
         style="fill:#ffe680;stroke:#000000;stroke-opacity:1"
         sodipodi:type="arc" />
      <path
         transform="translate(334.8443,79.17792)"
         d="m 96.873631,118.98123 c 0,18.15938 -7.756271,32.88047 -17.324116,32.88047 -9.567845,0 -17.324116,-14.72109 -17.324116,-32.88047 0,-18.15938 7.756271,-32.880465 17.324116,-32.880465 9.567845,0 17.324116,14.721085 17.324116,32.880465 z"
         sodipodi:ry="32.880466"
         sodipodi:rx="17.324116"
         sodipodi:cy="118.98123"
         sodipodi:cx="79.549515"
         id="path3755-4-7"
         style="fill:#5599ff;stroke:#000000;stroke-width:1;stroke-miterlimit:4;stroke-opacity:1;stroke-dasharray:none"
         sodipodi:type="arc" />
      <path
         transform="matrix(0.93969262,0.34202014,-0.34202014,0.93969262,366.47668,54.2839)"
         d="m 93.691649,67.008881 c 0,3.319456 -0.633165,6.010407 -1.414214,6.010407 -0.781048,0 -1.414213,-2.690951 -1.414213,-6.010407 0,-3.319457 0.633165,-6.010408 1.414213,-6.010408 0.781049,0 1.414214,2.690951 1.414214,6.010408 z"
         sodipodi:ry="6.0104074"
         sodipodi:rx="1.4142135"
         sodipodi:cy="67.008881"
         sodipodi:cx="92.277435"
         id="path3757-3-9"
         style="fill:#afe9dd;stroke:#000000;stroke-width:1;stroke-miterlimit:4;stroke-opacity:1;stroke-dasharray:none"
         sodipodi:type="arc" />
      <path
         inkscape:connector-curvature="0"
         id="path3759-7-8"
         d="m 428.57854,147.93828 -11.96033,-4.35321"
         style="fill:none;stroke:#000000;stroke-width:1px;stroke-linecap:butt;stroke-linejoin:miter;stroke-opacity:1" />
      <path
         inkscape:connector-curvature="0"
         id="path3763-8-4"
         d="m 412.2725,179.42082 c 0,0 -6.28365,9.19675 -6.47165,15.51303 -0.20282,6.81388 5.09511,16.86184 5.09511,16.86184"
         style="fill:none;stroke:#000000;stroke-width:1px;stroke-linecap:butt;stroke-linejoin:miter;stroke-opacity:1"
         sodipodi:nodetypes="csc" />
      <path
         inkscape:connector-curvature="0"
         id="path3767-5-9"
         d="m 411.21183,227.50408 c 0,0 0.43662,14.56263 0.33112,18.83332 -0.12255,4.96052 -2.42053,17.75574 -2.42053,17.75574"
         style="fill:none;stroke:#000000;stroke-width:1px;stroke-linecap:butt;stroke-linejoin:miter;stroke-opacity:1"
         sodipodi:nodetypes="csc" />
      <path
         inkscape:connector-curvature="0"
         id="path3647-4"
         d="m 415.37666,145.78609 c 0,0 0.97192,-3.40869 2.18027,-3.77512 1.20835,-0.36643 2.88086,-1.63891 6.94781,-1.36802 4.06695,0.2709 5.44762,0.9078 5.44762,0.9078 0,0 -2.26359,-6.33316 -8.63864,-8.38474 -6.37503,-2.05159 -12.32999,-1.93467 -17.91938,2.34647 -5.5894,4.28115 -6.32487,10.73209 -6.32487,10.73209 l 10.43109,2.72162 c 0,0 3.74546,-6.96787 5.25567,-6.68694 1.51023,0.28093 2.62043,3.50684 2.62043,3.50684 z"
         style="fill:#aa4400;stroke:#000000;stroke-width:1px;stroke-linecap:butt;stroke-linejoin:miter;stroke-opacity:1" />
    </g>
    <g
       id="g3756"
       transform="translate(-86.873119,-19.192898)">
      <path
         inkscape:connector-curvature="0"
         id="path3744"
         d="m 504.28571,263.07647 c 0,0 -13.57142,-53.57143 13.57143,-55 27.14286,-1.42857 28.57143,15.71428 28.57143,15.71428 l 0,40.71429 z"
         style="fill:#b3b3b3;stroke:#000000;stroke-width:1px;stroke-linecap:butt;stroke-linejoin:miter;stroke-opacity:1" />
      <flowRoot
         transform="translate(-2,0)"
         style="font-size:8px;font-style:normal;font-weight:normal;text-align:center;line-height:125%;letter-spacing:0px;word-spacing:0px;text-anchor:middle;fill:#000000;fill-opacity:1;stroke:none;font-family:Sans"
         id="flowRoot3746"
         xml:space="preserve"><flowRegion
           id="flowRegion3748"><rect
             style="font-size:8px;text-align:center;text-anchor:middle"
             y="220.93361"
             x="506.42856"
             height="35"
             width="35.714287"
             id="rect3750" /></flowRegion><flowPara
           id="flowPara3752">R.I.P.</flowPara><flowPara
           id="flowPara3754">Steve Jobs</flowPara></flowRoot>    </g>
    <text
       xml:space="preserve"
       style="font-size:10px;font-style:normal;font-weight:normal;text-align:center;line-height:125%;letter-spacing:0px;word-spacing:0px;text-anchor:middle;fill:#000000;fill-opacity:1;stroke:none;font-family:Sans"
       x="54.741577"
       y="79.0802"
       id="text3764"
       sodipodi:linespacing="125%"><tspan
         sodipodi:role="line"
         id="tspan3766"
         x="54.741577"
         y="79.0802">WINDOWS</tspan><tspan
         sodipodi:role="line"
         x="54.741577"
         y="91.5802"
         id="tspan3768">SUX</tspan></text>
    <text
       xml:space="preserve"
       style="font-size:10px;font-style:normal;font-weight:normal;text-align:center;line-height:125%;letter-spacing:0px;word-spacing:0px;text-anchor:middle;fill:#000000;fill-opacity:1;stroke:none;font-family:Sans"
       x="156.10181"
       y="80.595436"
       id="text3770"
       sodipodi:linespacing="125%"><tspan
         sodipodi:role="line"
         id="tspan3772"
         x="156.10181"
         y="80.595436">MACS</tspan><tspan
         sodipodi:role="line"
         x="156.10181"
         y="93.095436"
         id="tspan3774">R POO</tspan></text>
    <path
       style="fill:none;stroke:#000000;stroke-width:1px;stroke-linecap:butt;stroke-linejoin:miter;stroke-opacity:1"
       d="m 58.588849,94.737572 c 0,0 4.04061,5.555838 3.03046,9.091368 -1.01016,3.53553 0,7.57614 0,7.57614"
       id="path3776"
       inkscape:connector-curvature="0" />
    <path
       style="fill:none;stroke:#000000;stroke-width:1px;stroke-linecap:butt;stroke-linejoin:miter;stroke-opacity:1"
       d="m 143.94674,97.262952 c 0,0 -2.52538,4.545688 -2.02031,7.071068 0.50508,2.52538 2.52539,6.56599 2.52539,6.56599"
       id="path3778"
       inkscape:connector-curvature="0" />
    <text
       xml:space="preserve"
       style="font-size:10px;font-style:normal;font-weight:normal;line-height:125%;letter-spacing:0px;word-spacing:0px;fill:#000000;fill-opacity:1;stroke:none;font-family:Sans"
       x="305.57114"
       y="89.686798"
       id="text3780"
       sodipodi:linespacing="125%"><tspan
         sodipodi:role="line"
         id="tspan3782"
         x="305.57114"
         y="89.686798">A worthy adversary</tspan></text>
    <path
       style="fill:none;stroke:#000000;stroke-width:1px;stroke-linecap:butt;stroke-linejoin:miter;stroke-opacity:1"
       d="m 343.95695,94.232492 c 0,0 0.50507,7.576148 -1.01016,10.101528 -1.51522,2.52538 -4.54568,4.54568 -4.54568,4.54568"
       id="path3784"
       inkscape:connector-curvature="0" />
    <text
       xml:space="preserve"
       style="font-size:28px;font-style:normal;font-weight:normal;line-height:125%;letter-spacing:0px;word-spacing:0px;fill:#000000;fill-opacity:1;stroke:none;font-family:Sans"
       x="270.72089"
       y="47.260399"
       id="text3786"
       sodipodi:linespacing="125%"><tspan
         sodipodi:role="line"
         id="tspan3788"
         x="270.72089"
         y="47.260399">Immortal Kombat</tspan></text>
    <path
       sodipodi:nodetypes="csc"
       style="fill:none;stroke:#000000;stroke-width:1px;stroke-linecap:butt;stroke-linejoin:miter;stroke-opacity:1"
       d="m 583.05796,208.31118 c 0,0 18.38084,-4.34866 23.21299,-0.77441 4.33838,3.20903 3.33184,16.39012 3.33184,16.39012"
       id="path3765-1"
       inkscape:connector-curvature="0" />
    <path
       style="fill:none;stroke:#000000;stroke-width:1px;stroke-linecap:butt;stroke-linejoin:miter;stroke-opacity:1"
       d="m 583.76506,159.16726 c 0,0 6.59823,13.89637 13.70244,14.07009 7.95867,0.1946 19.32182,-12.61944 19.32182,-12.61944"
       id="path3761-9"
       inkscape:connector-curvature="0"
       sodipodi:nodetypes="csc" />
    <path
       sodipodi:type="arc"
       style="fill:#ffe680;stroke:#000000;stroke-opacity:1"
       id="path2985-7"
       sodipodi:cx="75.5"
       sodipodi:cy="68.862183"
       sodipodi:rx="16.5"
       sodipodi:ry="16.5"
       d="m 92,68.862183 a 16.5,16.5 0 1 1 -33,0 16.5,16.5 0 1 1 33,0 z"
       transform="translate(508.45819,61.045682)" />
    <path
       sodipodi:type="arc"
       style="fill:#4d4d4d;stroke:#000000;stroke-width:1;stroke-miterlimit:4;stroke-opacity:1;stroke-dasharray:none"
       id="path3755-2"
       sodipodi:cx="79.549515"
       sodipodi:cy="118.98123"
       sodipodi:rx="17.324116"
       sodipodi:ry="32.880466"
       d="m 96.873631,118.98123 a 17.324116,32.880466 0 1 1 -34.648232,0 17.324116,32.880466 0 1 1 34.648232,0 z"
       transform="translate(504.21555,59.985022)" />
    <path
       sodipodi:type="arc"
       style="fill:#afe9dd;stroke:#000000;stroke-width:1;stroke-miterlimit:4;stroke-opacity:1;stroke-dasharray:none"
       id="path3757-1"
       sodipodi:cx="92.277435"
       sodipodi:cy="67.008881"
       sodipodi:rx="1.4142135"
       sodipodi:ry="6.0104074"
       d="m 93.691649,67.008881 a 1.4142135,6.0104074 0 1 1 -2.828427,0 1.4142135,6.0104074 0 1 1 2.828427,0 z"
       transform="translate(506.45819,57.045682)" />
    <path
       style="fill:none;stroke:#000000;stroke-width:1px;stroke-linecap:butt;stroke-linejoin:miter;stroke-opacity:1"
       d="m 596.84654,123.81192 -12.72792,0"
       id="path3759-3"
       inkscape:connector-curvature="0" />
    <path
       sodipodi:nodetypes="csc"
       style="fill:none;stroke:#000000;stroke-width:1px;stroke-linecap:butt;stroke-linejoin:miter;stroke-opacity:1"
       d="m 581.64375,160.22792 c 0,0 18.28011,4.20555 24.338,1.87597 7.93713,-3.05226 8.12557,-19.25111 8.12557,-19.25111"
       id="path3763-86"
       inkscape:connector-curvature="0" />
    <path
       sodipodi:nodetypes="csc"
       style="fill:none;stroke:#000000;stroke-width:1px;stroke-linecap:butt;stroke-linejoin:miter;stroke-opacity:1"
       d="m 580.58308,208.31118 c 0,0 6.4616,15.07856 6.13949,19.33839 -0.37508,4.96052 -6.20859,18.51336 -6.20859,18.51336"
       id="path3767-6"
       inkscape:connector-curvature="0" />
    <path
       sodipodi:nodetypes="csc"
       style="fill:none;stroke:#000000;stroke-width:1px;stroke-linecap:butt;stroke-linejoin:miter;stroke-opacity:1"
       d="m 679.21675,208.31118 c 0,0 -7.78274,13.16999 -7.55562,19.1761 0.2073,5.48187 3.73922,18.15789 3.73922,18.15789"
       id="path3765-2-0"
       inkscape:connector-curvature="0" />
    <path
       style="fill:none;stroke:#000000;stroke-width:1px;stroke-linecap:butt;stroke-linejoin:miter;stroke-opacity:1"
       d="m 678.50965,159.16726 c 0,0 -6.18495,6.48715 -15.47021,9.77694 -6.61261,2.34286 -19.57436,-8.07376 -19.57436,-8.07376"
       id="path3761-0-7"
       inkscape:connector-curvature="0"
       sodipodi:nodetypes="csc" />
    <path
       sodipodi:type="arc"
       style="fill:#ffe680;stroke:#000000;stroke-opacity:1"
       id="path2985-8-8"
       sodipodi:cx="75.5"
       sodipodi:cy="68.862183"
       sodipodi:rx="16.5"
       sodipodi:ry="16.5"
       d="m 92,68.862183 a 16.5,16.5 0 1 1 -33,0 16.5,16.5 0 1 1 33,0 z"
       transform="matrix(-1,0,0,1,753.81652,61.045681)" />
    <path
       sodipodi:type="arc"
       style="fill:#5599ff;stroke:#000000;stroke-width:1;stroke-miterlimit:4;stroke-opacity:1;stroke-dasharray:none"
       id="path3755-4-9"
       sodipodi:cx="79.549515"
       sodipodi:cy="118.98123"
       sodipodi:rx="17.324116"
       sodipodi:ry="32.880466"
       d="m 96.873631,118.98123 a 17.324116,32.880466 0 1 1 -34.648232,0 17.324116,32.880466 0 1 1 34.648232,0 z"
       transform="matrix(-1,0,0,1,758.05916,59.985021)" />
    <path
       sodipodi:type="arc"
       style="fill:#afe9dd;stroke:#000000;stroke-width:1;stroke-miterlimit:4;stroke-opacity:1;stroke-dasharray:none"
       id="path3757-3-6"
       sodipodi:cx="92.277435"
       sodipodi:cy="67.008881"
       sodipodi:rx="1.4142135"
       sodipodi:ry="6.0104074"
       d="m 93.691649,67.008881 a 1.4142135,6.0104074 0 1 1 -2.828427,0 1.4142135,6.0104074 0 1 1 2.828427,0 z"
       transform="matrix(-1,0,0,1,755.81652,57.045681)" />
    <path
       style="fill:none;stroke:#000000;stroke-width:1px;stroke-linecap:butt;stroke-linejoin:miter;stroke-opacity:1"
       d="m 665.42817,123.81192 12.72792,0"
       id="path3759-7-3"
       inkscape:connector-curvature="0" />
    <path
       sodipodi:nodetypes="csc"
       style="fill:none;stroke:#000000;stroke-width:1px;stroke-linecap:butt;stroke-linejoin:miter;stroke-opacity:1"
       d="m 680.63096,160.22792 c 0,0 -1.68779,14.23449 -7.92302,15.26049 -6.11064,1.0055 -13.42887,-20.5138 -13.42887,-20.5138"
       id="path3763-8-5"
       inkscape:connector-curvature="0" />
    <path
       sodipodi:nodetypes="csc"
       style="fill:none;stroke:#000000;stroke-width:1px;stroke-linecap:butt;stroke-linejoin:miter;stroke-opacity:1"
       d="m 681.69163,208.31118 c 0,0 1.36708,15.58364 1.68919,19.84347 0.37508,4.96052 7.97636,16.99813 7.97636,16.99813"
       id="path3767-5-4"
       inkscape:connector-curvature="0" />
    <text
       xml:space="preserve"
       style="font-size:10px;font-style:normal;font-weight:normal;text-align:center;line-height:125%;letter-spacing:0px;word-spacing:0px;text-anchor:middle;fill:#000000;fill-opacity:1;stroke:none;font-family:Sans"
       x="583.05133"
       y="79.0802"
       id="text3764-1"
       sodipodi:linespacing="125%"><tspan
         sodipodi:role="line"
         id="tspan3766-7"
         x="583.05133"
         y="79.0802">WINDOWS</tspan><tspan
         sodipodi:role="line"
         x="583.05133"
         y="91.5802"
         id="tspan3768-3">SUX</tspan></text>
    <text
       xml:space="preserve"
       style="font-size:10px;font-style:normal;font-weight:normal;text-align:center;line-height:125%;letter-spacing:0px;word-spacing:0px;text-anchor:middle;fill:#000000;fill-opacity:1;stroke:none;font-family:Sans"
       x="684.41156"
       y="80.595436"
       id="text3770-6"
       sodipodi:linespacing="125%"><tspan
         sodipodi:role="line"
         id="tspan3772-6"
         x="684.41156"
         y="80.595436">MACS</tspan><tspan
         sodipodi:role="line"
         x="684.41156"
         y="93.095436"
         id="tspan3774-6">R POO</tspan></text>
    <path
       style="fill:none;stroke:#000000;stroke-width:1px;stroke-linecap:butt;stroke-linejoin:miter;stroke-opacity:1"
       d="m 586.89863,94.737571 c 0,0 4.04061,5.555839 3.03046,9.091369 -1.01016,3.53553 0,7.57614 0,7.57614"
       id="path3776-0"
       inkscape:connector-curvature="0" />
    <path
       style="fill:none;stroke:#000000;stroke-width:1px;stroke-linecap:butt;stroke-linejoin:miter;stroke-opacity:1"
       d="m 672.25652,97.262951 c 0,0 -2.52538,4.545689 -2.02031,7.071069 0.50508,2.52538 2.52539,6.56599 2.52539,6.56599"
       id="path3778-4"
       inkscape:connector-curvature="0" />
    <path
       style="fill:#aa4400;stroke:#000000;stroke-width:1px;stroke-linecap:butt;stroke-linejoin:miter;stroke-opacity:1"
       d="m 691.09417,118.16928 c 0,0 -3.39286,1.60714 -5.89286,1.96429 -2.5,0.35714 -5.35714,-0.71429 -6.60714,0.53571 -1.25,1.25 -2.14286,5.35714 -2.14286,5.35714 0,0 1.42857,-2.14285 2.85714,-1.96428 1.42857,0.17857 2.67857,1.07143 1.96429,3.39285 -0.71429,2.32143 0.71428,5.53572 0.71428,5.53572 0,0 5.89286,-0.17857 8.21429,-0.53571 2.32143,-0.35715 5.71429,-1.42858 5.71429,-1.42858 0,0 -0.17858,-4.46428 -1.42858,-7.5 -1.25,-3.03571 -3.39285,-5.35714 -3.39285,-5.35714 z"
       id="path3547-4"
       inkscape:connector-curvature="0" />
    <path
       style="fill:#999999;stroke:#000000;stroke-width:1px;stroke-linecap:butt;stroke-linejoin:miter;stroke-opacity:1"
       d="m 584.55785,126.30483 c 0,0 -0.25254,-3.53553 0.75761,-4.29314 1.01015,-0.75762 2.14658,-2.52539 6.06092,-3.66181 3.91434,-1.13642 5.42957,-1.01015 5.42957,-1.01015 0,0 -4.29315,-5.17703 -10.98541,-4.92449 -6.69226,0.25253 -12.2481,2.39911 -16.03617,8.33375 -3.78808,5.93465 -2.27285,12.2481 -2.27285,12.2481 l 10.73287,-1.01015 c 0,0 1.13643,-7.82868 2.65165,-8.08122 1.51523,-0.25254 3.66181,2.39911 3.66181,2.39911 z"
       id="path3647-41"
       inkscape:connector-curvature="0" />
    <text
       xml:space="preserve"
       style="font-size:10px;font-style:normal;font-weight:normal;text-align:center;line-height:125%;letter-spacing:0px;word-spacing:0px;text-anchor:middle;fill:#000000;fill-opacity:1;stroke:none;font-family:Sans"
       x="681.60492"
       y="261.41275"
       id="text3907"
       sodipodi:linespacing="125%"><tspan
         sodipodi:role="line"
         id="tspan3909"
         x="681.60492"
         y="261.41275">Steve</tspan><tspan
         sodipodi:role="line"
         x="681.60492"
         y="273.91275"
         id="tspan3911">Ballmer</tspan></text>
    <text
       xml:space="preserve"
       style="font-size:10px;font-style:normal;font-weight:normal;text-align:center;line-height:125%;letter-spacing:0px;word-spacing:0px;text-anchor:middle;fill:#000000;fill-opacity:1;stroke:none;font-family:Sans"
       x="588.19421"
       y="263.43304"
       id="text3913"
       sodipodi:linespacing="125%"><tspan
         sodipodi:role="line"
         id="tspan3915"
         x="588.19421"
         y="263.43304">Tim</tspan><tspan
         sodipodi:role="line"
         x="588.19421"
         y="275.93304"
         id="tspan3917">Cook</tspan></text>
    <text
       xml:space="preserve"
       style="font-size:10px;font-style:normal;font-weight:normal;text-align:center;line-height:125%;letter-spacing:0px;word-spacing:0px;text-anchor:middle;fill:#000000;fill-opacity:1;stroke:none;font-family:Sans"
       x="155.31546"
       y="261.41275"
       id="text3907-4"
       sodipodi:linespacing="125%"><tspan
         sodipodi:role="line"
         x="155.31546"
         y="261.41275"
         id="tspan3911-7">Bill</tspan><tspan
         sodipodi:role="line"
         x="155.31546"
         y="273.91275"
         id="tspan3975">Gates</tspan></text>
    <text
       xml:space="preserve"
       style="font-size:10px;font-style:normal;font-weight:normal;text-align:center;line-height:125%;letter-spacing:0px;word-spacing:0px;text-anchor:middle;fill:#000000;fill-opacity:1;stroke:none;font-family:Sans"
       x="56.853977"
       y="263.43304"
       id="text3913-6"
       sodipodi:linespacing="125%"><tspan
         sodipodi:role="line"
         x="56.853977"
         y="263.43304"
         id="tspan3917-6">Steve</tspan><tspan
         sodipodi:role="line"
         x="56.853977"
         y="275.93304"
         id="tspan3971">Jobs</tspan></text>
    <text
       xml:space="preserve"
       style="font-size:10px;font-style:normal;font-weight:normal;text-align:center;line-height:125%;letter-spacing:0px;word-spacing:0px;text-anchor:middle;fill:#000000;fill-opacity:1;stroke:none;font-family:Sans"
       x="327.04138"
       y="261.41275"
       id="text3907-4-8"
       sodipodi:linespacing="125%"><tspan
         sodipodi:role="line"
         x="327.04138"
         y="261.41275"
         id="tspan3911-7-1">Bill</tspan><tspan
         sodipodi:role="line"
         x="327.04138"
         y="273.91275"
         id="tspan3975-8">Gates</tspan></text>
    <text
       xml:space="preserve"
       style="font-size:14px;font-style:normal;font-weight:normal;line-height:125%;letter-spacing:0px;word-spacing:0px;fill:#000000;fill-opacity:1;stroke:none;font-family:Sans"
       x="22.184868"
       y="308.19131"
       id="text3489"
       sodipodi:linespacing="125%"><tspan
         sodipodi:role="line"
         id="tspan3491"
         x="22.184868"
         y="308.19131">comics.knreddy.com</tspan></text>
    <text
       xml:space="preserve"
       style="font-size:14px;font-style:normal;font-weight:normal;line-height:125%;letter-spacing:0px;word-spacing:0px;fill:#000000;fill-opacity:1;stroke:none;font-family:Sans"
       x="588.18488"
       y="305.19131"
       id="text3493"
       sodipodi:linespacing="125%"><tspan
         sodipodi:role="line"
         id="tspan3495"
         x="588.18488"
         y="305.19131">Copyright (C) 2012</tspan></text>
  </g>
</svg>
