<?xml version="1.0" encoding="UTF-8" standalone="no"?>
<!-- Created with Inkscape (http://www.inkscape.org/) -->

<svg
   xmlns:dc="http://purl.org/dc/elements/1.1/"
   xmlns:cc="http://creativecommons.org/ns#"
   xmlns:rdf="http://www.w3.org/1999/02/22-rdf-syntax-ns#"
   xmlns:svg="http://www.w3.org/2000/svg"
   xmlns="http://www.w3.org/2000/svg"
   xmlns:sodipodi="http://sodipodi.sourceforge.net/DTD/sodipodi-0.dtd"
   xmlns:inkscape="http://www.inkscape.org/namespaces/inkscape"
   width="744.09448819"
   height="1052.3622047"
   id="svg3397"
   version="1.1"
   inkscape:version="0.48.3.1 r9886"
   sodipodi:docname="New document 4">
  <defs
     id="defs3399" />
  <sodipodi:namedview
     id="base"
     pagecolor="#ffffff"
     bordercolor="#666666"
     borderopacity="1.0"
     inkscape:pageopacity="0.0"
     inkscape:pageshadow="2"
     inkscape:zoom="1.4"
     inkscape:cx="290.20038"
     inkscape:cy="960.22802"
     inkscape:document-units="px"
     inkscape:current-layer="layer1"
     showgrid="false"
     inkscape:window-width="959"
     inkscape:window-height="744"
     inkscape:window-x="65"
     inkscape:window-y="24"
     inkscape:window-maximized="1" />
  <metadata
     id="metadata3402">
    <rdf:RDF>
      <cc:Work
         rdf:about="">
        <dc:format>image/svg+xml</dc:format>
        <dc:type
           rdf:resource="http://purl.org/dc/dcmitype/StillImage" />
        <dc:title></dc:title>
      </cc:Work>
    </rdf:RDF>
  </metadata>
  <g
     inkscape:label="Layer 1"
     inkscape:groupmode="layer"
     id="layer1">
    <g
       id="g4232"
       transform="translate(140,-61.428571)">
      <path
         transform="translate(-21.278667,69.119432)"
         d="m 77.074639,169.18581 c 0,7.61522 -1.503767,13.78858 -3.358758,13.78858 -1.85499,0 -3.358757,-6.17336 -3.358757,-13.78858 0,-7.61523 1.503767,-13.78859 3.358757,-13.78859 1.854991,0 3.358758,6.17336 3.358758,13.78859 z"
         sodipodi:ry="13.788582"
         sodipodi:rx="3.3587573"
         sodipodi:cy="169.18581"
         sodipodi:cx="73.715881"
         id="path3773-5"
         style="fill:#48373e;stroke:#000000;stroke-width:1;stroke-miterlimit:4;stroke-opacity:1;stroke-dasharray:none"
         sodipodi:type="arc" />
      <path
         inkscape:connector-curvature="0"
         id="path3765-1"
         d="m 53.321098,216.38493 c 0,0 23.334524,0.70711 26.162955,6.01041 2.82842,5.3033 2.47487,27.93072 2.47487,27.93072"
         style="fill:none;stroke:#000000;stroke-width:1px;stroke-linecap:butt;stroke-linejoin:miter;stroke-opacity:1" />
      <path
         sodipodi:nodetypes="csc"
         inkscape:connector-curvature="0"
         id="path3761-1"
         d="m 54.028205,167.24101 c 0,0 2.828427,16.26346 9.899495,16.97056 7.071068,0.70711 23.816753,-0.43198 23.816753,-0.43198"
         style="fill:none;stroke:#000000;stroke-width:1px;stroke-linecap:butt;stroke-linejoin:miter;stroke-opacity:1" />
      <path
         transform="translate(-21.278667,69.119432)"
         d="m 92,68.862183 c 0,9.112698 -7.387302,16.5 -16.5,16.5 -9.112698,0 -16.5,-7.387302 -16.5,-16.5 0,-9.112699 7.387302,-16.5 16.5,-16.5 9.112698,0 16.5,7.387301 16.5,16.5 z"
         sodipodi:ry="16.5"
         sodipodi:rx="16.5"
         sodipodi:cy="68.862183"
         sodipodi:cx="75.5"
         id="path2985-7"
         style="fill:#ffe680;stroke:#000000;stroke-opacity:1"
         sodipodi:type="arc" />
      <path
         transform="translate(-25.521308,68.058772)"
         d="m 96.873631,118.98123 c 0,18.15938 -7.756271,32.88047 -17.324116,32.88047 -9.567845,0 -17.324116,-14.72109 -17.324116,-32.88047 0,-18.15938 7.756271,-32.880465 17.324116,-32.880465 9.567845,0 17.324116,14.721085 17.324116,32.880465 z"
         sodipodi:ry="32.880466"
         sodipodi:rx="17.324116"
         sodipodi:cy="118.98123"
         sodipodi:cx="79.549515"
         id="path3755-3"
         style="fill:#d35fbc;stroke:#000000;stroke-width:1;stroke-miterlimit:4;stroke-opacity:1;stroke-dasharray:none"
         sodipodi:type="arc" />
      <path
         inkscape:connector-curvature="0"
         id="path3759-8"
         d="m 67.109681,131.88567 -12.727922,0"
         style="fill:none;stroke:#000000;stroke-width:1px;stroke-linecap:butt;stroke-linejoin:miter;stroke-opacity:1" />
      <path
         inkscape:connector-curvature="0"
         id="path3763-9"
         d="m 51.906885,168.30167 c 0,0 2.12132,12.37437 7.778175,15.55635 5.656854,3.18198 27.577163,3.53553 27.577163,3.53553"
         style="fill:none;stroke:#000000;stroke-width:1px;stroke-linecap:butt;stroke-linejoin:miter;stroke-opacity:1" />
      <path
         inkscape:connector-curvature="0"
         id="path3767-4"
         d="m 50.846225,216.38493 c 0,0 20.152543,2.47488 21.92031,6.36396 1.767767,3.88909 2.474874,29.34493 2.474874,29.34493"
         style="fill:none;stroke:#000000;stroke-width:1px;stroke-linecap:butt;stroke-linejoin:miter;stroke-opacity:1" />
      <path
         transform="translate(-15.268259,69.119432)"
         d="m 83.438597,153.45268 c 0,2.24552 -7.123106,4.06587 -15.909903,4.06587 -8.786796,0 -15.909902,-1.82035 -15.909902,-4.06587 0,-2.24551 7.123106,-4.06586 15.909902,-4.06586 8.786797,0 15.909903,1.82035 15.909903,4.06586 z"
         sodipodi:ry="4.0658641"
         sodipodi:rx="15.909903"
         sodipodi:cy="153.45268"
         sodipodi:cx="67.528694"
         id="path3769-0"
         style="fill:#c83737;stroke:#000000;stroke-width:1;stroke-miterlimit:4;stroke-opacity:1;stroke-dasharray:none"
         sodipodi:type="arc" />
      <path
         transform="translate(-21.278667,69.119432)"
         d="m 60.811183,130.11816 c 0,12.98494 -1.978641,23.51131 -4.419417,23.51131 -2.440777,0 -4.419418,-10.52637 -4.419418,-23.51131 0,-12.98493 1.978641,-23.5113 4.419418,-23.5113 2.440776,0 4.419417,10.52637 4.419417,23.5113 z"
         sodipodi:ry="23.511301"
         sodipodi:rx="4.4194174"
         sodipodi:cy="130.11816"
         sodipodi:cx="56.391766"
         id="path3771-6"
         style="fill:#a02c2c;stroke:#000000;stroke-width:1;stroke-miterlimit:4;stroke-opacity:1;stroke-dasharray:none"
         sodipodi:type="arc" />
      <path
         transform="translate(-21.278667,69.119432)"
         d="m 88.034795,182.26729 c 0,1.36683 -6.094213,2.47487 -13.611806,2.47487 -7.517593,0 -13.611806,-1.10804 -13.611806,-2.47487 0,-1.36684 6.094213,-2.47488 13.611806,-2.47488 7.517593,0 13.611806,1.10804 13.611806,2.47488 z"
         sodipodi:ry="2.4748738"
         sodipodi:rx="13.611806"
         sodipodi:cy="182.26729"
         sodipodi:cx="74.422989"
         id="path3775-5"
         style="fill:#48373e;stroke:#000000;stroke-width:1;stroke-miterlimit:4;stroke-opacity:1;stroke-dasharray:none"
         sodipodi:type="arc" />
      <rect
         y="190.23161"
         x="85.471336"
         height="63"
         width="49.5"
         id="rect3777-2"
         style="fill:#aa4400;stroke:#000000;stroke-width:1;stroke-miterlimit:4;stroke-opacity:1;stroke-dasharray:none" />
      <rect
         y="162.23161"
         x="115.72134"
         height="28"
         width="7.25"
         id="rect3781-5"
         style="fill:#decd87;stroke:#000000;stroke-width:1;stroke-miterlimit:4;stroke-opacity:1;stroke-dasharray:none" />
      <rect
         transform="matrix(0.98480775,0.17364818,-0.17364818,0.98480775,0,0)"
         y="114.47903"
         x="137.12701"
         height="47.75"
         width="6.25"
         id="rect3779-3"
         style="fill:#decd87;stroke:#000000;stroke-width:1;stroke-miterlimit:4;stroke-opacity:1;stroke-dasharray:none" />
      <rect
         rx="0"
         ry="2.625"
         y="184.73161"
         x="85.721336"
         height="5.25"
         width="22.75"
         id="rect3785-5"
         style="fill:#decd87;stroke:#000000;stroke-width:1;stroke-miterlimit:4;stroke-opacity:1;stroke-dasharray:none" />
      <path
         inkscape:connector-curvature="0"
         id="path3460"
         d="m 66.25,127.00504 c 0,0 -4.464286,-6.07143 -14.285714,-5.71429 -9.821429,0.35714 -14.642857,14.64286 -14.642857,14.64286 0,0 -3.214286,-6.60714 -5.178572,-6.60714 -1.964286,0 -8.214286,0.35714 -5.714286,8.57142 2.5,8.21429 1.25,12.32143 0,13.92858 -1.25,1.60714 -3.75,2.32143 -3.75,2.32143 0,0 5.535715,2.14285 8.392858,-0.71429 2.857143,-2.85714 -0.178572,-12.5 1.607142,-13.03572 1.785715,-0.53571 5.714286,2.5 5.714286,2.5 0,0 0.178572,1.78572 1.964286,4.10715 1.785714,2.32143 3.928571,4.46428 3.928571,4.46428 0,0 4.821429,-12.67857 8.035715,-16.42857 3.214285,-3.75 13.928571,-8.03571 13.928571,-8.03571 z"
         style="fill:#aa4400;stroke:#000000;stroke-width:1px;stroke-linecap:butt;stroke-linejoin:miter;stroke-opacity:1" />
      <rect
         ry="2.3526561"
         y="130.21933"
         x="67.14286"
         height="9.4106245"
         width="5.2599916"
         id="rect3462"
         style="fill:#afe9dd;fill-opacity:1;stroke:#000000;stroke-width:1;stroke-linejoin:miter;stroke-miterlimit:4;stroke-opacity:1;stroke-dasharray:none" />
    </g>
  </g>
</svg>
