<?xml version="1.0" encoding="UTF-8" standalone="no"?>
<!-- Created with Inkscape (http://www.inkscape.org/) -->

<svg
   xmlns:dc="http://purl.org/dc/elements/1.1/"
   xmlns:cc="http://creativecommons.org/ns#"
   xmlns:rdf="http://www.w3.org/1999/02/22-rdf-syntax-ns#"
   xmlns:svg="http://www.w3.org/2000/svg"
   xmlns="http://www.w3.org/2000/svg"
   xmlns:sodipodi="http://sodipodi.sourceforge.net/DTD/sodipodi-0.dtd"
   xmlns:inkscape="http://www.inkscape.org/namespaces/inkscape"
   width="744.09448819"
   height="1052.3622047"
   id="svg3470"
   version="1.1"
   inkscape:version="0.48.3.1 r9886"
   sodipodi:docname="knreddy-comics-logo.svg">
  <defs
     id="defs3472" />
  <sodipodi:namedview
     id="base"
     pagecolor="#ffffff"
     bordercolor="#666666"
     borderopacity="1.0"
     inkscape:pageopacity="0.0"
     inkscape:pageshadow="2"
     inkscape:zoom="0.70710678"
     inkscape:cx="192.99215"
     inkscape:cy="804.5244"
     inkscape:document-units="px"
     inkscape:current-layer="layer1"
     showgrid="false"
     inkscape:window-width="959"
     inkscape:window-height="744"
     inkscape:window-x="65"
     inkscape:window-y="24"
     inkscape:window-maximized="1" />
  <metadata
     id="metadata3475">
    <rdf:RDF>
      <cc:Work
         rdf:about="">
        <dc:format>image/svg+xml</dc:format>
        <dc:type
           rdf:resource="http://purl.org/dc/dcmitype/StillImage" />
        <dc:title />
      </cc:Work>
    </rdf:RDF>
  </metadata>
  <g
     inkscape:label="Layer 1"
     inkscape:groupmode="layer"
     id="layer1">
    <path
       sodipodi:type="arc"
       style="fill:#ffe680;stroke:#000000;stroke-width:1;stroke-miterlimit:4;stroke-opacity:1;stroke-dasharray:none;fill-opacity:1"
       id="path3478"
       sodipodi:cx="192"
       sodipodi:cy="122.36218"
       sodipodi:rx="75"
       sodipodi:ry="75"
       d="m 267,122.36218 a 75,75 0 1 1 -150,0 75,75 0 1 1 150,0 z" />
    <path
       sodipodi:type="arc"
       style="fill:#afe9dd;fill-opacity:1;stroke:#000000;stroke-width:3;stroke-miterlimit:4;stroke-opacity:1;stroke-dasharray:none"
       id="path4756"
       sodipodi:cx="168"
       sodipodi:cy="110.36218"
       sodipodi:rx="24"
       sodipodi:ry="24"
       d="m 192,110.36218 a 24,24 0 1 1 -48,0 24,24 0 1 1 48,0 z"
       transform="translate(-4,0)" />
    <path
       sodipodi:type="arc"
       style="fill:#afe9dd;fill-opacity:1;stroke:#000000;stroke-width:3;stroke-miterlimit:4;stroke-opacity:1;stroke-dasharray:none"
       id="path4756-3"
       sodipodi:cx="168"
       sodipodi:cy="110.36218"
       sodipodi:rx="24"
       sodipodi:ry="24"
       d="m 192,110.36218 a 24,24 0 1 1 -48,0 24,24 0 1 1 48,0 z"
       transform="translate(52,0)" />
    <path
       style="fill:none;stroke:#000000;stroke-width:3;stroke-linecap:butt;stroke-linejoin:miter;stroke-opacity:1;stroke-miterlimit:4;stroke-dasharray:none"
       d="m 139.75,111.86218 -21.75,0"
       id="path4778"
       inkscape:connector-curvature="0" />
    <path
       style="fill:none;stroke:#000000;stroke-width:3;stroke-linecap:butt;stroke-linejoin:miter;stroke-opacity:1;stroke-miterlimit:4;stroke-dasharray:none"
       d="m 188.25,111.36218 7.5,0"
       id="path4780"
       inkscape:connector-curvature="0" />
    <path
       style="fill:none;stroke:#000000;stroke-width:3;stroke-linecap:butt;stroke-linejoin:miter;stroke-opacity:1;stroke-miterlimit:4;stroke-dasharray:none"
       d="m 244.5,110.86218 21.25,0"
       id="path4782"
       inkscape:connector-curvature="0" />
    <path
       sodipodi:type="arc"
       style="fill:#92631f;fill-opacity:1;stroke:#000000;stroke-width:3;stroke-miterlimit:4;stroke-opacity:1;stroke-dasharray:none"
       id="path4784"
       sodipodi:cx="163.51845"
       sodipodi:cy="111.82294"
       sodipodi:rx="3.0052037"
       sodipodi:ry="4.8625221"
       d="m 166.52365,111.82294 a 3.0052037,4.8625221 0 1 1 -6.01041,0 3.0052037,4.8625221 0 1 1 6.01041,0 z" />
    <path
       transform="translate(56.922092,-2.2692871e-6)"
       sodipodi:type="arc"
       style="fill:#92631f;fill-opacity:1;stroke:#000000;stroke-width:3;stroke-miterlimit:4;stroke-opacity:1;stroke-dasharray:none"
       id="path4784-4"
       sodipodi:cx="163.51845"
       sodipodi:cy="111.82294"
       sodipodi:rx="3.0052037"
       sodipodi:ry="4.8625221"
       d="m 166.52365,111.82294 a 3.0052037,4.8625221 0 1 1 -6.01041,0 3.0052037,4.8625221 0 1 1 6.01041,0 z" />
    <path
       style="fill:#92631f;stroke:#000000;stroke-width:1px;stroke-linecap:butt;stroke-linejoin:miter;stroke-opacity:1;fill-opacity:1"
       d="m 159.45258,153.62946 c 0,0 18.38478,8.83884 30.40559,8.83884 12.02082,0 31.81981,-6.71752 31.81981,-6.71752 0,0 -15.2028,21.21321 -31.81981,21.21321 -16.61701,0 -30.40559,-23.33453 -30.40559,-23.33453 z"
       id="path4804"
       inkscape:connector-curvature="0" />
    <path
       sodipodi:type="arc"
       style="fill:#bcd35f;fill-opacity:1;stroke:#000000;stroke-width:1;stroke-miterlimit:4;stroke-opacity:1;stroke-dasharray:none"
       id="path4806"
       sodipodi:cx="192.5"
       sodipodi:cy="306.36218"
       sodipodi:rx="71.5"
       sodipodi:ry="111"
       d="m 264,306.36218 a 71.5,111 0 1 1 -143,0 71.5,111 0 1 1 143,0 z"
       transform="translate(0,2)" />
    <text
       xml:space="preserve"
       style="font-size:80px;font-style:normal;font-weight:normal;text-align:center;line-height:125%;letter-spacing:0px;word-spacing:0px;text-anchor:middle;fill:#000000;fill-opacity:1;stroke:none;font-family:Sans"
       x="517.23438"
       y="324.36218"
       id="text4808"
       sodipodi:linespacing="125%"><tspan
         sodipodi:role="line"
         id="tspan4810"
         x="517.23438"
         y="324.36218">KNReddy</tspan><tspan
         sodipodi:role="line"
         x="517.23438"
         y="424.36218"
         id="tspan4812">Comics</tspan></text>
    <path
       style="fill:none;stroke:#000000;stroke-width:3;stroke-linecap:butt;stroke-linejoin:miter;stroke-opacity:1;stroke-miterlimit:4;stroke-dasharray:none"
       d="m 252,246.36218 c 0,0 50,-10 72,-33 22,-23 48,-59 48,-59"
       id="path4814"
       inkscape:connector-curvature="0" />
    <path
       style="fill:none;stroke:#000000;stroke-width:3;stroke-linecap:butt;stroke-linejoin:miter;stroke-opacity:1;stroke-miterlimit:4;stroke-dasharray:none"
       d="m 132,246.36218 c 0,0 -25,46 -26,70 -1,24 14,82 14,82"
       id="path4816"
       inkscape:connector-curvature="0" />
    <path
       style="fill:none;stroke:#000000;stroke-width:3;stroke-linecap:butt;stroke-linejoin:miter;stroke-opacity:1;stroke-miterlimit:4;stroke-dasharray:none"
       d="m 166,411.36218 c 0,0 -21,33 -17,58 4,25 13,61 13,61"
       id="path4818"
       inkscape:connector-curvature="0" />
    <path
       style="fill:none;stroke:#000000;stroke-width:3;stroke-linecap:butt;stroke-linejoin:miter;stroke-opacity:1;stroke-miterlimit:4;stroke-dasharray:none"
       d="m 226,407.36218 c 0,0 20,29 21,48 1,19 -13,74 -13,74"
       id="path4820"
       inkscape:connector-curvature="0" />
    <path
       style="fill:none;stroke:#000000;stroke-width:1px;stroke-linecap:butt;stroke-linejoin:miter;stroke-opacity:1"
       d="m 183.5,135.36218 c 0,0 2.5,8.5 8,8.5 5.5,0 9,-8.5 9,-8.5"
       id="path3007"
       inkscape:connector-curvature="0" />
  </g>
</svg>
